<svg width="478" height="189" viewBox="0 0 478 189" fill="none" xmlns="http://www.w3.org/2000/svg">
<path d="M295.97 99.2115C304.621 66.8145 284.703 33.7123 251.482 25.2757C218.26 16.8392 184.316 36.263 175.664 68.66C167.013 101.057 186.931 134.159 220.153 142.596C253.374 151.032 287.319 131.609 295.97 99.2115Z" fill="#FFCE33"/>
<path d="M273.792 86.9146C276.15 84.9676 275.945 81.6696 274.72 78.9026C273.495 76.1366 270.303 74.3326 267.233 74.6716C269.696 72.9856 269.364 69.5336 267.967 66.9346C266.57 64.3346 263.076 63.0236 260.252 64.0386C262.878 61.9966 262.965 58.6216 261.261 55.7986C260.548 54.6186 259.439 53.7106 258.167 53.1386C257.447 50.4276 255.844 47.9376 253.519 46.2856C251.652 44.9586 249.399 44.2356 247.1 44.0826C244.425 42.3186 241.014 41.2906 238.163 42.6516C230.078 39.8196 220.355 42.1626 214.554 48.3416C213.58 49.3776 212.685 50.5686 212.448 51.9546C212.211 53.3406 212.818 54.9466 214.145 55.4936C210.539 53.7816 207.344 55.1196 204.581 57.9556C201.817 60.7906 201.208 65.4096 203.145 68.8346C200.049 68.9346 197.552 72.4836 196.82 75.4206C196.088 78.3576 197.576 81.6836 200.281 83.1586C196.463 83.5396 195.048 88.6596 196.2 92.2316C196.954 94.5696 199.292 96.1756 201.757 96.5006C199.639 97.5256 197.753 99.4926 196.888 101.427C195.519 104.49 196.625 108.416 199.407 110.368C202.188 112.319 206.357 112.094 208.899 109.854C208.031 112.199 209.829 115.383 212.105 116.519C214.381 117.655 217.175 117.409 219.536 116.452C221.898 115.495 223.918 113.9 225.901 112.327C225.081 112.804 226.301 114.011 226.666 114.872C227.031 115.732 227.827 116.347 228.655 116.811C233.26 119.391 239.803 117.868 242.716 113.539C242.567 116.631 245.005 119.529 248.178 119.618C251.351 119.707 254.308 116.932 254.34 113.837C256.383 116.835 260.138 117.605 263.051 115.395C265.963 113.185 266.384 108.48 263.906 105.812C266.592 108.149 271.287 109.567 273.505 106.804C275.725 104.04 275.004 99.4996 272.033 97.5186C275.346 98.2076 279.187 96.9416 279.616 93.6646C280.046 90.3846 277.177 87.0606 273.792 86.9146Z" fill="#2E2E2E"/>
<path d="M247.365 124.449C247.587 131.065 242.267 136.552 235.63 136.552C229.133 136.552 223.896 131.292 223.896 124.838C223.896 124.712 223.896 124.576 223.905 124.449L225.212 106.977L225.379 104.726L226.194 93.8706H245.066L245.91 105.133L246.095 107.592L247.365 124.449Z" fill="#F5F5FF" stroke="#2E2E2E" stroke-width="0.5" stroke-miterlimit="10" stroke-linecap="round" stroke-linejoin="round"/>
<path d="M246.804 115.772C240.856 116.482 234.15 113.692 229.607 108.032C227.761 105.742 226.48 103.222 225.741 100.672L226.274 93.6216H245.143L245.984 104.882L246.178 107.342L246.804 115.772Z" fill="#2E2E2E"/>
<path d="M253.093 77.3575C250.722 81.0705 250.951 85.4685 253.604 87.1815C256.257 88.8945 260.33 87.2725 262.701 83.5595C265.072 79.8465 264.842 75.4485 262.189 73.7365C259.536 72.0225 255.463 73.6445 253.093 77.3575Z" fill="#F5F5FF" stroke="#2E2E2E" stroke-width="0.5" stroke-miterlimit="10" stroke-linecap="round" stroke-linejoin="round"/>
<path d="M260.193 75.5176C261.343 75.9556 262.215 77.0196 262.402 78.2086C262.589 79.3976 262.08 80.6676 261.117 81.4196" stroke="#2E2E2E" stroke-width="0.5" stroke-miterlimit="10" stroke-linecap="round" stroke-linejoin="round"/>
<path d="M218.015 77.3575C220.386 81.0705 220.156 85.4685 217.504 87.1815C214.851 88.8945 210.778 87.2725 208.407 83.5595C206.036 79.8465 206.266 75.4485 208.919 73.7365C211.571 72.0225 215.644 73.6445 218.015 77.3575Z" fill="#F5F5FF" stroke="#2E2E2E" stroke-width="0.5" stroke-miterlimit="10" stroke-linecap="round" stroke-linejoin="round"/>
<path d="M210.915 75.5176C209.765 75.9556 208.893 77.0196 208.706 78.2086C208.52 79.3976 209.028 80.6676 209.991 81.4196" stroke="#2E2E2E" stroke-width="0.5" stroke-miterlimit="10" stroke-linecap="round" stroke-linejoin="round"/>
<path d="M259.228 70.4136C259.228 70.7556 259.228 71.0856 259.203 71.3976C259.164 72.3696 259.073 73.3416 258.931 74.2906L258.782 75.6516L258.71 76.3886L258.601 77.4546C258.536 78.1026 258.491 78.7396 258.446 79.3756C258.42 79.7826 258.393 80.1826 258.368 80.5836C258.264 82.1976 258.167 83.7886 257.922 85.3796C257.922 85.4036 257.908 85.4326 257.908 85.4566C257.856 85.7566 257.805 86.0636 257.74 86.3636C257.676 86.6936 257.611 87.0176 257.514 87.3356C257.397 87.8126 257.254 88.2956 257.086 88.7846C257.034 88.9616 256.969 89.1266 256.898 89.3036C256.769 89.6576 256.613 90.0106 256.458 90.3756C256.025 91.3066 255.513 92.2196 254.924 93.1276C252.472 96.9106 248.718 100.369 244.952 102.667C244.939 102.691 244.913 102.702 244.9 102.702C244.44 102.991 243.981 103.256 243.528 103.497C238.94 105.972 233.51 106.107 228.754 103.974C227.771 103.532 226.819 103.031 225.9 102.436C225.887 102.436 225.874 102.436 225.861 102.413C222.218 100.115 219.092 96.7856 216.737 93.1266C216.569 92.8736 216.413 92.6196 216.252 92.3546C216.174 92.2196 216.097 92.0776 216.019 91.9426C215.89 91.7126 215.76 91.4716 215.624 91.2356C215.249 90.6056 214.919 89.9456 214.621 89.3026C214.543 89.1256 214.453 88.9486 214.381 88.7606C213.275 86.1856 212.88 83.3106 212.622 80.4826C212.576 80.0406 212.538 79.5926 212.499 79.1506C212.453 78.6556 212.407 78.1606 212.369 77.6716L212.24 76.3456C212.207 76.1986 212.182 76.0566 212.156 75.9156C212.117 75.7566 212.091 75.5976 212.072 75.4386C211.955 74.8316 211.865 74.2246 211.794 73.5946C211.678 72.5756 211.613 71.5026 211.613 70.4126C211.613 70.3246 211.613 70.2236 211.626 70.1356C211.626 69.4516 211.658 68.7806 211.716 68.1146C211.767 67.5486 211.845 66.9896 211.943 66.4416C212.486 63.0836 213.702 59.9606 215.463 57.2206C215.903 56.5316 216.375 55.8716 216.88 55.2346C221.908 48.8926 230.501 45.2026 239.286 46.5826C246.314 47.6866 252.018 51.9086 255.448 57.3376C255.552 57.4786 255.636 57.6266 255.74 57.7856C257.28 60.3726 258.38 63.2706 258.891 66.3756C258.891 66.3986 258.904 66.4166 258.904 66.4406C258.994 66.9886 259.066 67.5486 259.117 68.1136C259.182 68.7796 259.215 69.4506 259.215 70.1346C259.228 70.2256 259.228 70.3256 259.228 70.4136Z" fill="#F5F5FF" stroke="#2E2E2E" stroke-width="0.5086" stroke-miterlimit="10" stroke-linecap="round" stroke-linejoin="round"/>
<path d="M238.381 43.2647C240.901 45.5187 241.52 49.3967 239.809 52.2337C238.099 55.0697 234.218 56.6047 230.833 55.7837C231.882 57.3167 231.058 59.6677 229.929 61.1507C228.799 62.6337 226.665 63.3877 224.761 62.9767C226.373 67.8727 223.084 73.6117 218.313 76.1707C219.603 78.5977 218.912 82.4697 217.552 84.8637C216.191 87.2577 213.547 88.9827 210.663 89.3587C212.57 91.4517 213.246 94.7947 212.238 97.3727C211.231 99.9507 208.665 101.946 205.758 102.414C203.385 102.795 199.763 102.202 198.73 100.181C197.696 98.1597 198.358 95.5127 200.245 94.1217C199.153 91.9517 198.478 89.9207 198.341 87.5277C198.17 84.5607 198.801 81.4937 200.548 79.0047C202.294 76.5157 205.24 74.6807 208.433 74.5287C205.679 70.7167 204.999 66.1837 207.006 61.9877C209.014 57.7917 213.442 54.6787 218.333 54.0267C218.284 51.4017 219.325 48.8717 221.511 47.2077C223.696 45.5447 226.716 44.8717 229.476 45.4337C230.185 43.8597 232.722 42.9327 234.534 42.6577C236.346 42.3837 238.289 43.0327 239.499 44.3167" fill="#2E2E2E"/>
<path d="M240.495 44.4417C238.646 47.5967 238.751 51.7487 240.759 54.8107C242.766 57.8727 246.586 59.7087 250.299 59.3957C248.571 61.2727 248.87 64.3807 250.479 66.3557C252.088 68.3317 255.213 68.9437 257.48 67.7267C256.321 68.6757 255.136 70.1087 255.028 71.5807C254.918 73.0527 255.783 74.6347 257.226 75.0817C258.669 75.5287 260.481 74.4697 260.493 72.9937C260.526 68.8407 263.136 64.9367 261.701 61.0257C260.268 57.1147 257.042 53.8657 253.08 52.3417C251.668 46.9957 246.156 44.3677 240.495 44.4417Z" fill="#2E2E2E"/>
<path d="M224.283 87.6854C228.9 87.6854 232.644 84.0352 232.644 79.5324C232.644 75.0296 228.9 71.3794 224.283 71.3794C219.666 71.3794 215.923 75.0296 215.923 79.5324C215.923 84.0352 219.666 87.6854 224.283 87.6854Z" stroke="#2E2E2E" stroke-width="0.5" stroke-miterlimit="10" stroke-linecap="round" stroke-linejoin="round"/>
<path d="M247.299 87.6854C251.917 87.6854 255.66 84.0352 255.66 79.5324C255.66 75.0296 251.917 71.3794 247.299 71.3794C242.682 71.3794 238.939 75.0296 238.939 79.5324C238.939 84.0352 242.682 87.6854 247.299 87.6854Z" stroke="#2E2E2E" stroke-width="0.5" stroke-miterlimit="10" stroke-linecap="round" stroke-linejoin="round"/>
<path d="M232.647 78.5713C233.571 78.0463 234.645 77.7463 235.79 77.7463C236.952 77.7463 238.04 78.0553 238.972 78.5933" stroke="#2E2E2E" stroke-width="0.5" stroke-miterlimit="10" stroke-linecap="round" stroke-linejoin="round"/>
<path d="M215.922 79.5323L211.194 73.3923" stroke="#2E2E2E" stroke-width="0.5" stroke-miterlimit="10" stroke-linecap="round" stroke-linejoin="round"/>
<path d="M255.505 79.5323L260.234 73.3923" stroke="#2E2E2E" stroke-width="0.5" stroke-miterlimit="10" stroke-linecap="round" stroke-linejoin="round"/>
<path d="M239.731 71.2616C240.215 70.1136 241.176 69.2686 242.242 68.6846C243.319 68.1066 244.541 67.7915 245.776 67.7515C247.012 67.7105 248.249 67.9516 249.36 68.4556C250.462 68.9666 251.475 69.7395 252.052 70.8465L248.758 70.7596C247.761 70.7416 246.812 70.7456 245.873 70.7726C244.934 70.8016 243.989 70.8536 242.997 70.9356C241.999 71.0136 240.981 71.1246 239.731 71.2616Z" fill="#2E2E2E"/>
<path d="M231.697 71.2615C230.446 71.1245 229.43 71.0135 228.43 70.9355C227.439 70.8535 226.495 70.8005 225.556 70.7725C224.615 70.7465 223.668 70.7415 222.67 70.7595L219.376 70.8465C219.954 69.7395 220.967 68.9665 222.068 68.4555C223.18 67.9505 224.416 67.7095 225.652 67.7515C226.888 67.7915 228.109 68.1065 229.187 68.6845C230.252 69.2685 231.213 70.1135 231.697 71.2615Z" fill="#2E2E2E"/>
<path d="M240.307 79.3595C240.529 78.8775 240.777 78.4105 241.012 77.9355L241.032 77.9065C241.617 77.0485 242.351 76.2195 243.333 75.6775C244.296 75.1195 245.454 74.8375 246.578 74.9055C247.695 74.9595 248.795 75.2865 249.744 75.8495C250.217 76.1275 250.649 76.4605 251.048 76.8205C251.445 77.1735 251.802 77.6035 251.948 78.1255L251.95 78.1345C251.986 78.2625 251.909 78.3935 251.778 78.4285C251.722 78.4435 251.664 78.4375 251.615 78.4165C251.087 78.1905 250.744 77.8925 250.363 77.5995C249.986 77.3125 249.583 77.0635 249.164 76.8545C248.337 76.4305 247.426 76.1855 246.505 76.1145C245.59 76.0425 244.675 76.2025 243.843 76.5965C243.017 76.9985 242.27 77.6105 241.63 78.3385L241.65 78.3105C241.329 78.7345 241.022 79.1675 240.689 79.5855C240.613 79.6815 240.472 79.6985 240.373 79.6245C240.29 79.5595 240.264 79.4495 240.307 79.3595Z" fill="#2E2E2E"/>
<path d="M244.086 77.5074C244.16 76.4944 245.063 75.7324 246.102 75.8054C247.14 75.8784 247.922 76.7584 247.847 77.7714C247.772 78.7844 246.87 79.5464 245.831 79.4734C244.792 79.4004 244.011 78.5204 244.086 77.5074Z" fill="#2E2E2E"/>
<path d="M249.771 79.1854C250.465 79.0344 251.122 78.7274 251.677 78.2944" stroke="#2E2E2E" stroke-width="0.5" stroke-miterlimit="10" stroke-linecap="round" stroke-linejoin="round"/>
<path d="M230.738 79.5845C230.406 79.1665 230.098 78.7345 229.777 78.3095L229.797 78.3375C229.157 77.6105 228.41 76.9985 227.584 76.5955C226.752 76.2015 225.839 76.0405 224.922 76.1135C224.001 76.1855 223.09 76.4295 222.263 76.8535C221.845 77.0625 221.442 77.3115 221.064 77.5985C220.683 77.8915 220.339 78.1905 219.812 78.4155C219.688 78.4685 219.543 78.4135 219.489 78.2925C219.465 78.2405 219.462 78.1845 219.477 78.1335L219.48 78.1245C219.626 77.6025 219.982 77.1725 220.38 76.8195C220.779 76.4605 221.211 76.1275 221.684 75.8485C222.632 75.2855 223.733 74.9595 224.85 74.9055C225.974 74.8375 227.133 75.1195 228.096 75.6775C229.077 76.2195 229.811 77.0485 230.397 77.9065L230.416 77.9355C230.651 78.4105 230.899 78.8775 231.122 79.3595C231.173 79.4705 231.123 79.5995 231.009 79.6495C230.911 79.6925 230.801 79.6625 230.738 79.5845Z" fill="#2E2E2E"/>
<path d="M227.343 77.5074C227.268 76.4944 226.366 75.7324 225.327 75.8054C224.288 75.8784 223.507 76.7584 223.582 77.7714C223.656 78.7844 224.559 79.5464 225.598 79.4734C226.636 79.4004 227.418 78.5204 227.343 77.5074Z" fill="#2E2E2E"/>
<path d="M221.657 79.1854C220.964 79.0344 220.306 78.7274 219.751 78.2944" stroke="#2E2E2E" stroke-width="0.5" stroke-miterlimit="10" stroke-linecap="round" stroke-linejoin="round"/>
<path d="M232.447 87.5876C233.231 86.6036 234.461 86.0006 235.707 85.9906C236.953 85.9806 238.188 86.5626 238.982 87.5346" stroke="#2E2E2E" stroke-width="0.4638" stroke-miterlimit="10" stroke-linecap="round" stroke-linejoin="round"/>
<path d="M235.912 94.5515C236.752 94.5465 237.592 94.4945 238.426 94.3955C238.681 94.3655 241.177 94.0305 241.16 93.8775C241.16 93.8775 239.875 92.9145 239.429 92.5445L239.231 92.3715C238.753 91.9545 238.259 91.5225 237.636 91.3055C237.028 91.1015 236.214 91.1915 235.744 91.7115C235.288 91.1785 234.478 91.0675 233.86 91.2565C233.236 91.4565 232.73 91.8755 232.24 92.2795L232.04 92.4445C231.583 92.8015 230.27 93.7335 230.27 93.7335C230.252 93.9325 232.422 94.2985 232.671 94.3335C233.586 94.4625 234.509 94.5345 235.434 94.5485C235.591 94.5515 235.751 94.5525 235.912 94.5515Z" fill="#2E2E2E"/>
<path d="M232.7 96.1404C234.592 97.2344 237.081 97.2694 239.004 96.2284Z" fill="#F5F5FF"/>
<path d="M232.7 96.1404C234.592 97.2344 237.081 97.2694 239.004 96.2284" stroke="#2E2E2E" stroke-width="0.5086" stroke-miterlimit="10" stroke-linecap="round" stroke-linejoin="round"/>
<path d="M173.546 181.011C181.874 184.676 189.477 185.805 190.527 183.534C191.578 181.263 185.679 176.451 177.351 172.786C169.024 169.121 161.42 167.992 160.369 170.263C159.319 172.535 165.217 177.347 173.546 181.011Z" fill="#2E2E2E"/>
<path d="M194.687 185.511L203.137 165.921L204.532 162.671L206.839 157.321L208.367 153.781L210.961 147.741L213.197 142.561C216.293 135.371 213.35 127.371 206.808 125.131C205.67 124.741 204.491 124.551 203.332 124.551C202.296 124.551 201.271 124.701 200.266 124.981C196.215 126.091 192.606 129.381 190.955 133.971L186.074 147.571L183.653 154.311L172.558 185.221C172.527 185.321 172.486 185.411 172.456 185.511" fill="#F5F5FF"/>
<path d="M194.687 185.511L203.137 165.921L204.532 162.671L206.839 157.321L208.367 153.781L210.961 147.741L213.197 142.561C216.293 135.371 213.35 127.371 206.808 125.131C205.67 124.741 204.491 124.551 203.332 124.551C202.296 124.551 201.271 124.701 200.266 124.981C196.215 126.091 192.606 129.381 190.955 133.971L186.074 147.571L183.653 154.311L172.558 185.221C172.527 185.321 172.486 185.411 172.456 185.511" stroke="#2E2E2E" stroke-width="0.5" stroke-miterlimit="10" stroke-linecap="round" stroke-linejoin="round"/>
<path d="M170.439 168.795C171.978 166.9 179.273 168.093 187.237 171.589C195.566 175.257 201.473 180.069 200.413 182.346C200.387 182.395 200.362 182.432 200.324 182.481L200.413 182.518L218.414 140.724C222.024 132.466 218.124 123.05 209.92 120.257C208.368 119.728 206.791 119.469 205.213 119.469C199.596 119.469 194.208 122.718 191.443 127.986L170.439 168.795Z" fill="#2E2E2E"/>
<path d="M174.413 155.524C174.987 155.524 175.453 155.069 175.453 154.509C175.453 153.948 174.987 153.494 174.413 153.494C173.838 153.494 173.372 153.948 173.372 154.509C173.372 155.069 173.838 155.524 174.413 155.524Z" fill="#F5F5FF"/>
<path d="M176.361 166.444C176.361 167.239 177.021 167.883 177.837 167.883C178.652 167.883 179.312 167.239 179.312 166.444C179.312 165.649 178.652 165.005 177.837 165.005C177.021 165.005 176.361 165.649 176.361 166.444Z" fill="#F5F5FF"/>
<path d="M182.255 147.61C182.255 148.283 181.696 148.828 181.007 148.828C180.318 148.828 179.759 148.283 179.759 147.61C179.759 146.938 180.318 146.393 181.007 146.393C181.696 146.393 182.255 146.938 182.255 147.61Z" fill="#F5F5FF"/>
<path d="M288.14 179.798C279.813 183.463 272.209 184.592 271.158 182.321C270.107 180.05 276.006 175.238 284.334 171.573C292.661 167.908 300.265 166.779 301.316 169.05C302.367 171.322 296.468 176.134 288.14 179.798Z" fill="#2E2E2E"/>
<path d="M276.972 185.511L268.523 165.921L267.128 162.671L264.821 157.321L263.293 153.781L260.698 147.741L258.463 142.561C255.366 135.371 258.309 127.371 264.851 125.131C265.99 124.741 267.169 124.551 268.328 124.551C269.363 124.551 270.389 124.701 271.394 124.981C275.444 126.091 279.054 129.381 280.705 133.971L285.586 147.571L288.006 154.311L299.101 185.221C299.132 185.321 299.173 185.411 299.204 185.511" fill="#F5F5FF"/>
<path d="M276.972 185.511L268.523 165.921L267.128 162.671L264.821 157.321L263.293 153.781L260.698 147.741L258.463 142.561C255.366 135.371 258.309 127.371 264.851 125.131C265.99 124.741 267.169 124.551 268.328 124.551C269.363 124.551 270.389 124.701 271.394 124.981C275.444 126.091 279.054 129.381 280.705 133.971L285.586 147.571L288.006 154.311L299.101 185.221C299.132 185.321 299.173 185.411 299.204 185.511" stroke="#2E2E2E" stroke-width="0.5" stroke-miterlimit="10" stroke-linecap="round" stroke-linejoin="round"/>
<path d="M301.22 168.795C299.681 166.9 292.386 168.093 284.422 171.589C276.092 175.257 270.186 180.069 271.246 182.346C271.272 182.395 271.296 182.432 271.334 182.481L271.246 182.518L253.244 140.724C249.635 132.466 253.535 123.05 261.738 120.257C263.291 119.728 264.868 119.469 266.446 119.469C272.062 119.469 277.451 122.718 280.216 127.986L301.22 168.795Z" fill="#2E2E2E"/>
<path d="M266.272 131.69C266.272 132.24 265.815 132.686 265.251 132.686C264.687 132.686 264.229 132.24 264.229 131.69C264.229 131.14 264.687 130.694 265.251 130.694C265.815 130.693 266.272 131.139 266.272 131.69Z" fill="#F5F5FF"/>
<path d="M277.301 155.524C277.876 155.524 278.342 155.069 278.342 154.509C278.342 153.948 277.876 153.494 277.301 153.494C276.726 153.494 276.26 153.948 276.26 154.509C276.26 155.069 276.726 155.524 277.301 155.524Z" fill="#F5F5FF"/>
<path d="M269.677 147.185C269.677 147.857 269.118 148.402 268.428 148.402C267.739 148.402 267.18 147.857 267.18 147.185C267.18 146.513 267.739 145.968 268.428 145.968C269.118 145.968 269.677 146.513 269.677 147.185Z" fill="#F5F5FF"/>
<path d="M275.352 166.444C275.352 167.239 274.691 167.883 273.876 167.883C273.061 167.883 272.4 167.239 272.4 166.444C272.4 165.649 273.061 165.005 273.876 165.005C274.691 165.005 275.352 165.649 275.352 166.444Z" fill="#F5F5FF"/>
<path d="M273.294 168.329C273.294 168.879 272.837 169.326 272.273 169.326C271.709 169.326 271.251 168.879 271.251 168.329C271.251 167.779 271.709 167.333 272.273 167.333C272.837 167.333 273.294 167.779 273.294 168.329Z" fill="#F5F5FF"/>
<path d="M273.475 137.791L270.85 150.031C271.373 151.151 271.783 152.331 272.06 153.561C272.347 154.841 272.501 156.161 272.501 157.521C272.501 159.141 272.286 160.721 271.865 162.221C271.517 163.521 271.025 164.761 270.399 165.921C269.374 167.841 268.02 169.571 266.39 171.021L263.303 185.511H207.754L204.668 170.611C203.55 169.551 202.566 168.341 201.745 167.031C200.771 165.471 200.023 163.761 199.561 161.941C199.202 160.531 199.007 159.051 199.007 157.521C199.007 155.971 199.212 154.461 199.582 153.021C199.817 152.111 200.115 151.231 200.474 150.381L197.869 137.791C196.751 133.151 196.967 128.611 198.648 125.191C200.033 122.351 202.432 120.291 205.919 119.561C206.801 119.381 207.765 119.281 208.8 119.281H263.908C264.933 119.281 265.877 119.381 266.738 119.561C270.04 120.261 272.142 122.251 273.27 124.981C274.716 128.431 274.614 133.061 273.475 137.791Z" fill="#2E2E2E"/>
<path d="M273.559 137.786C273.173 139.836 272.817 141.893 272.402 143.937C271.998 145.984 271.6 148.031 271.165 150.072L271.15 149.935C271.97 151.693 272.519 153.579 272.732 155.504C272.939 157.43 272.823 159.382 272.417 161.273C272.015 163.167 271.253 164.976 270.257 166.635C269.257 168.297 267.948 169.763 266.479 171.022C267.887 169.691 269.06 168.149 270.001 166.492C270.943 164.832 271.589 163.03 271.981 161.184C272.742 157.484 272.303 153.567 270.735 150.118C270.714 150.074 270.71 150.025 270.719 149.981C271.157 147.941 271.631 145.909 272.101 143.875C272.555 141.84 273.073 139.816 273.559 137.786Z" fill="white"/>
<path d="M204.753 170.614C203.389 169.364 202.18 167.93 201.252 166.325C200.33 164.721 199.632 162.982 199.25 161.171C198.874 159.36 198.758 157.495 198.942 155.652C199.117 153.808 199.613 151.999 200.349 150.297L200.335 150.429C199.476 146.228 198.697 142.011 197.958 137.787C198.957 141.961 199.914 146.142 200.791 150.34C200.8 150.385 200.794 150.432 200.777 150.472C199.377 153.809 198.974 157.541 199.684 161.086C200.042 162.856 200.639 164.585 201.506 166.191C202.372 167.794 203.453 169.297 204.753 170.614Z" fill="white"/>
<path d="M246.757 118.65L252.341 119.467C249.859 125.747 243.491 130.597 236.539 130.887C229.074 131.207 221.813 126.227 219.178 119.467L224.606 118.201" fill="#F5F5FF"/>
<path d="M246.757 118.65L252.341 119.467C249.859 125.747 243.491 130.597 236.539 130.887C229.074 131.207 221.813 126.227 219.178 119.467L224.606 118.201" stroke="#2E2E2E" stroke-width="0.5" stroke-miterlimit="10" stroke-linecap="round" stroke-linejoin="round"/>
<path d="M210.86 144.865C210.86 145.538 210.301 146.083 209.612 146.083C208.923 146.083 208.364 145.538 208.364 144.865C208.364 144.193 208.923 143.648 209.612 143.648C210.301 143.648 210.86 144.193 210.86 144.865Z" fill="#F5F5FF"/>
<path d="M223.118 174.75C223.118 176.034 222.05 177.074 220.735 177.074C219.418 177.074 218.352 176.033 218.352 174.75C218.352 173.467 219.419 172.426 220.735 172.426C222.05 172.425 223.118 173.466 223.118 174.75Z" fill="#F5F5FF"/>
<path d="M259.665 155.159C259.665 156.015 258.953 156.709 258.076 156.709C257.198 156.709 256.486 156.015 256.486 155.159C256.486 154.303 257.198 153.61 258.076 153.61C258.953 153.609 259.665 154.303 259.665 155.159Z" fill="#F5F5FF"/>
<path d="M237.986 153.831C239.803 153.831 241.277 152.393 241.277 150.621C241.277 148.848 239.803 147.411 237.986 147.411C236.168 147.411 234.694 148.848 234.694 150.621C234.694 152.393 236.168 153.831 237.986 153.831Z" fill="#F5F5FF"/>
<path d="M265.566 126.935C265.566 127.607 265.007 128.152 264.317 128.152C263.628 128.152 263.069 127.607 263.069 126.935C263.069 126.263 263.628 125.718 264.317 125.718C265.007 125.717 265.566 126.262 265.566 126.935Z" fill="#F5F5FF"/>
<path d="M210.859 128.484C210.859 129.768 209.792 130.808 208.476 130.808C207.159 130.808 206.093 129.767 206.093 128.484C206.093 127.2 207.16 126.16 208.476 126.16C209.792 126.16 210.859 127.201 210.859 128.484Z" fill="#F5F5FF"/>
<path d="M250.471 178.403C251.537 178.403 252.401 177.56 252.401 176.521C252.401 175.481 251.537 174.639 250.471 174.639C249.405 174.639 248.541 175.481 248.541 176.521C248.541 177.56 249.405 178.403 250.471 178.403Z" fill="#F5F5FF"/>
<path d="M210.179 166.006C211.182 166.006 211.995 165.213 211.995 164.235C211.995 163.257 211.182 162.464 210.179 162.464C209.176 162.464 208.363 163.257 208.363 164.235C208.363 165.213 209.176 166.006 210.179 166.006Z" fill="#F5F5FF"/>
<path d="M256.033 138.778C256.033 139.634 255.321 140.328 254.444 140.328C253.567 140.328 252.855 139.634 252.855 138.778C252.855 137.922 253.566 137.229 254.444 137.229C255.322 137.229 256.033 137.922 256.033 138.778Z" fill="#F5F5FF"/>
<path d="M228.792 141.213C229.795 141.213 230.608 140.42 230.608 139.442C230.608 138.464 229.795 137.671 228.792 137.671C227.789 137.671 226.976 138.464 226.976 139.442C226.976 140.42 227.789 141.213 228.792 141.213Z" fill="#F5F5FF"/>
<path d="M239.235 179.509C239.235 179.998 238.829 180.394 238.327 180.394C237.826 180.394 237.42 179.998 237.42 179.509C237.42 179.02 237.826 178.624 238.327 178.624C238.828 178.624 239.235 179.02 239.235 179.509Z" fill="#F5F5FF"/>
<path d="M433.75 128.589C458.189 104.916 458.189 66.5356 433.75 42.8631C409.311 19.1905 369.689 19.1905 345.25 42.8631C320.811 66.5357 320.811 104.916 345.25 128.589C369.689 152.262 409.311 152.262 433.75 128.589Z" fill="#3B4EFF"/>
<path d="M398.898 85.4995H379.347C373.593 85.4995 368.7 80.6985 367.827 74.1975L366.035 60.8405C364.953 52.7735 370.414 45.5005 377.555 45.5005H400.846C408.048 45.5005 413.526 52.8925 412.341 61.0115L410.393 74.3685C409.457 80.7915 404.596 85.4995 398.898 85.4995Z" fill="#2E2E2E"/>
<path d="M404.973 73.4735C402.584 77.1905 402.814 81.5945 405.489 83.3095C408.164 85.0245 412.268 83.4005 414.658 79.6835C417.048 75.9665 416.817 71.5625 414.142 69.8475C411.468 68.1325 407.363 69.7565 404.973 73.4735Z" fill="#F5F5FF" stroke="#2E2E2E" stroke-width="0.5006" stroke-miterlimit="10" stroke-linecap="round" stroke-linejoin="round"/>
<path d="M412.13 71.6316C413.288 72.0696 414.169 73.1356 414.356 74.3256C414.544 75.5166 414.031 76.7876 413.06 77.5406" stroke="#2E2E2E" stroke-width="0.5006" stroke-miterlimit="10" stroke-linecap="round" stroke-linejoin="round"/>
<path d="M372.716 73.4735C375.104 77.1905 374.874 81.5945 372.199 83.3095C369.525 85.0245 365.42 83.4005 363.03 79.6835C360.64 75.9665 360.871 71.5625 363.546 69.8475C366.221 68.1325 370.326 69.7565 372.716 73.4735Z" fill="#F5F5FF" stroke="#2E2E2E" stroke-width="0.5006" stroke-miterlimit="10" stroke-linecap="round" stroke-linejoin="round"/>
<path d="M365.558 71.6316C364.4 72.0696 363.519 73.1356 363.332 74.3256C363.144 75.5166 363.656 76.7876 364.628 77.5406" stroke="#2E2E2E" stroke-width="0.5006" stroke-miterlimit="10" stroke-linecap="round" stroke-linejoin="round"/>
<path d="M402.137 118.35C402.368 125.068 396.817 130.623 389.881 130.623C383.084 130.623 377.615 125.28 377.615 118.752C377.615 118.618 377.615 118.484 377.626 118.35L378.988 100.645L379.334 96.1635L380.014 87.3665H399.735L400.82 101.271L401.594 111.387L402.137 118.35Z" fill="#F5F5FF" stroke="#2E2E2E" stroke-width="0.5589" stroke-miterlimit="10" stroke-linecap="round" stroke-linejoin="round"/>
<path d="M401.594 111.387C395.12 111.834 387.989 108.715 383.096 102.657C381.446 100.623 380.188 98.4215 379.334 96.1635L380.014 87.3665H399.735L400.82 101.271L401.594 111.387Z" fill="#2E2E2E"/>
<path d="M411.048 79.4814C411.048 84.6274 408.877 89.5544 405.033 93.1084L399.172 98.2044C397.394 100.086 394.882 101.158 392.247 101.158H386.789C384.174 101.158 381.693 100.107 379.905 98.2644L373.92 93.1184C370.003 89.5544 367.791 84.5874 367.791 79.3914L367.884 77.8194L368.422 68.8084L368.825 62.1304C368.825 51.0264 378.045 42.0254 389.415 42.0254C395.111 42.0254 400.258 44.2784 403.98 47.9124C407.712 51.5474 410.016 56.5734 410.016 62.1304L410.47 69.7304L410.915 77.2294L411.048 79.4814Z" fill="#F5F5FF" stroke="#2E2E2E" stroke-width="0.5006" stroke-miterlimit="10" stroke-linecap="round" stroke-linejoin="round"/>
<path d="M410.469 69.7294H409.828C406.809 65.4444 404.867 60.4474 404.225 55.3014C403.823 52.0874 399.109 51.0064 395.781 51.3564C394.282 53.5494 391.646 54.9814 388.928 55.0614C386.21 55.1414 383.543 53.3794 381.91 51.2664C378.592 50.9164 373.858 51.9974 373.455 55.2114C372.855 60.0274 371.119 64.7134 368.421 68.8084L368.824 62.1304C368.824 51.0264 378.044 42.0254 389.414 42.0254C395.11 42.0254 400.257 44.2784 403.979 47.9124C407.711 51.5474 410.015 56.5734 410.015 62.1304L410.469 69.7294Z" fill="#2E2E2E"/>
<path d="M411.048 79.4815L410.914 77.2285C409.302 79.2915 407.328 81.8145 405.932 83.3065C403.917 85.4495 400.453 85.6805 397.001 85.6005C396.102 85.5805 394.914 85.1805 393.714 84.6495C390.716 83.3275 386.995 83.3275 383.987 84.6495C382.799 85.1805 381.589 85.5805 380.69 85.6005C377.237 85.6805 373.775 85.4485 371.769 83.3065C370.549 82.0045 369.102 79.8325 367.882 77.8195L367.789 79.3915C367.789 80.2785 367.877 81.1535 368.003 82.0205C367.963 81.9555 367.921 81.8895 367.882 81.8245L367.789 83.3965C367.789 88.5925 370.002 93.5595 373.918 97.1235L379.903 102.27C381.691 104.112 384.172 105.164 386.787 105.164H392.245C394.88 105.164 397.392 104.093 399.17 102.21L405.031 97.1135C408.876 93.5595 411.046 88.6325 411.046 83.4865L410.928 81.5075C411.005 80.8375 411.048 80.1615 411.048 79.4815Z" fill="#2E2E2E"/>
<path d="M385.776 105.11C386.963 105.118 388.151 105.006 389.34 104.988C390.52 104.929 391.735 104.948 392.886 104.891C395.194 104.709 397.401 103.704 399.034 102.087L399.044 102.076L399.046 102.074C399.999 101.292 400.967 100.527 401.957 99.7864C401.09 100.66 400.2 101.51 399.296 102.343L399.308 102.331C397.732 104.112 395.365 105.275 392.92 105.384C391.698 105.427 390.534 105.374 389.338 105.337C388.153 105.289 386.96 105.284 385.776 105.11Z" fill="#F5F5FF"/>
<path d="M399.036 89.6303C396.339 92.2943 392.71 93.7864 389.093 93.6724C385.806 93.5704 382.591 92.1354 380.11 89.7674H380.689C381.588 89.7444 382.797 89.2894 383.987 88.6854C386.995 87.1824 390.716 87.1824 393.714 88.6854C394.912 89.2894 396.101 89.7444 397.001 89.7674C397.683 89.7894 398.365 89.7443 399.036 89.6303Z" fill="#F5F5FF"/>
<path d="M389.093 92.4314C390.236 92.8924 390.829 93.3544 391.257 93.8154C391.662 94.2764 391.854 94.7384 391.854 95.1994C391.861 95.6604 391.671 96.1224 391.265 96.5834C390.839 97.0444 390.244 97.5064 389.094 97.9674C387.944 97.5064 387.348 97.0444 386.923 96.5834C386.517 96.1224 386.327 95.6604 386.333 95.1994C386.332 94.7384 386.525 94.2764 386.93 93.8154C387.358 93.3544 387.95 92.8924 389.093 92.4314Z" fill="#2E2E2E"/>
<path d="M393.935 65.8985C394.896 65.3395 395.948 64.9555 397.055 64.6685C398.164 64.3925 399.342 64.2345 400.557 64.2765C401.766 64.3145 403.023 64.5835 404.126 65.1455C405.229 65.6985 406.141 66.5625 406.623 67.5995C405.508 67.2435 404.505 67.0565 403.546 67.0275C402.586 66.9975 401.67 67.1165 400.74 67.2785C398.876 67.6005 396.983 68.2265 394.852 68.4835C394.062 68.5785 393.342 68.0355 393.244 67.2705C393.17 66.7055 393.463 66.1745 393.935 65.8985Z" fill="#2E2E2E"/>
<path d="M383.96 68.4835C381.829 68.2265 379.936 67.6005 378.072 67.2785C377.142 67.1165 376.225 66.9965 375.266 67.0275C374.307 67.0565 373.304 67.2435 372.189 67.5995C372.671 66.5625 373.582 65.6995 374.686 65.1455C375.789 64.5835 377.046 64.3145 378.255 64.2765C379.469 64.2345 380.647 64.3925 381.756 64.6685C382.863 64.9555 383.914 65.3395 384.875 65.8985C385.56 66.2935 385.783 67.1505 385.375 67.8135C385.076 68.3025 384.508 68.5475 383.96 68.4835Z" fill="#2E2E2E"/>
<path d="M394.364 74.4535C394.661 74.0075 394.976 73.5785 395.291 73.1425C395.648 72.7065 396.032 72.2745 396.5 71.9295C397.418 71.2235 398.554 70.7785 399.727 70.6095C400.901 70.4665 402.134 70.5885 403.221 71.0605C403.776 71.2675 404.273 71.5965 404.743 71.9285C405.174 72.2505 405.609 72.5675 405.892 73.0905C405.957 73.2105 405.909 73.3585 405.786 73.4215C405.736 73.4465 405.682 73.4545 405.632 73.4465C405.028 73.3605 404.576 73.0685 404.119 72.7805C403.685 72.5305 403.246 72.3075 402.776 72.1525C401.847 71.8265 400.853 71.7075 399.868 71.7855C398.89 71.8875 397.908 72.1655 397.068 72.7055C396.628 72.9455 396.248 73.2765 395.877 73.6195C395.49 73.9885 395.11 74.3705 394.709 74.7315C394.618 74.8145 394.474 74.8095 394.388 74.7215C394.316 74.6475 394.308 74.5355 394.364 74.4535Z" fill="#2E2E2E"/>
<path d="M398.126 72.8495C398.201 71.8355 399.112 71.0725 400.159 71.1455C401.205 71.2185 401.993 72.0995 401.918 73.1145C401.842 74.1285 400.933 74.8915 399.885 74.8185C398.838 74.7455 398.05 73.8635 398.126 72.8495Z" fill="#2E2E2E"/>
<path d="M394.756 74.6125C395.677 75.0845 396.744 75.3136 397.85 75.2756" stroke="#2E2E2E" stroke-width="0.5006" stroke-miterlimit="10" stroke-linecap="round" stroke-linejoin="round"/>
<path d="M394.487 72.3904C395.54 70.9794 397.203 70.0104 398.984 69.7734" stroke="#2E2E2E" stroke-width="0.5006" stroke-miterlimit="10" stroke-linecap="round" stroke-linejoin="round"/>
<path d="M385.102 74.7325C384.701 74.3715 384.321 73.9895 383.934 73.6205C383.564 73.2775 383.184 72.9465 382.743 72.7065C381.904 72.1665 380.92 71.8875 379.943 71.7865C378.958 71.7085 377.965 71.8265 377.035 72.1535C376.565 72.3085 376.128 72.5315 375.692 72.7815C375.236 73.0695 374.783 73.3615 374.179 73.4475C374.041 73.4675 373.913 73.3745 373.892 73.2405C373.884 73.1875 373.895 73.1355 373.919 73.0915C374.202 72.5675 374.637 72.2515 375.068 71.9295C375.538 71.5985 376.036 71.2685 376.59 71.0615C377.678 70.5895 378.91 70.4675 380.085 70.6105C381.257 70.7795 382.393 71.2245 383.312 71.9305C383.779 72.2745 384.163 72.7075 384.521 73.1435C384.834 73.5795 385.149 74.0085 385.448 74.4545C385.516 74.5565 385.486 74.6925 385.381 74.7585C385.291 74.8125 385.175 74.7995 385.102 74.7325Z" fill="#2E2E2E"/>
<path d="M381.684 72.8495C381.609 71.8355 380.698 71.0725 379.652 71.1455C378.605 71.2185 377.817 72.0995 377.892 73.1145C377.968 74.1285 378.877 74.8915 379.925 74.8185C380.972 74.7455 381.76 73.8635 381.684 72.8495Z" fill="#2E2E2E"/>
<path d="M385.054 74.6125C384.133 75.0845 383.066 75.3136 381.96 75.2756" stroke="#2E2E2E" stroke-width="0.5006" stroke-miterlimit="10" stroke-linecap="round" stroke-linejoin="round"/>
<path d="M385.324 72.3904C384.271 70.9794 382.607 70.0104 380.827 69.7734" stroke="#2E2E2E" stroke-width="0.5006" stroke-miterlimit="10" stroke-linecap="round" stroke-linejoin="round"/>
<path d="M389.829 81.3094V72.3584" stroke="#2E2E2E" stroke-width="0.4622" stroke-miterlimit="10" stroke-linecap="round" stroke-linejoin="round"/>
<path d="M386.619 82.8594L388.206 83.5064C389.222 83.9204 390.362 83.9204 391.378 83.5064L392.965 82.8594" stroke="#2E2E2E" stroke-width="0.4622" stroke-miterlimit="10" stroke-linecap="round" stroke-linejoin="round"/>
<path d="M391.099 89.9555C393.033 89.9755 395.06 89.6105 396.719 88.6455" stroke="#2E2E2E" stroke-width="0.4178" stroke-miterlimit="10" stroke-linecap="round" stroke-linejoin="round"/>
<path d="M387.416 90.0366C385.48 90.0566 383.455 89.6916 381.796 88.7266" stroke="#2E2E2E" stroke-width="0.4178" stroke-miterlimit="10" stroke-linecap="round" stroke-linejoin="round"/>
<path d="M387.416 90.0366C388.289 90.6826 389.93 90.8446 391.099 89.9556" stroke="#2E2E2E" stroke-width="0.4178" stroke-miterlimit="10" stroke-linecap="round" stroke-linejoin="round"/>
<path d="M389.312 85.6474C389.738 84.7814 390.592 84.2594 391.44 84.0314C392.299 83.8044 393.161 83.8484 393.942 83.9904C395.548 84.3384 396.7 84.9634 397.553 85.3094L398.562 85.7324C398.827 85.8484 399.101 85.9474 399.559 85.9694C400.466 86.0374 401.801 85.5934 403.497 85.4414C403.333 87.3424 402.737 88.9844 401.253 90.2824C400.526 90.9174 399.494 91.3544 398.454 91.4284C397.411 91.5174 396.449 91.2614 395.66 90.9174C394.068 90.2084 393.042 89.1464 392.264 88.2944C391.854 87.8394 391.473 87.3894 391.043 86.9334C390.606 86.4704 390.12 86.0234 389.312 85.6474Z" fill="#2E2E2E"/>
<path d="M389.321 85.6474C388.513 86.0234 388.026 86.4704 387.589 86.9344C387.158 87.3914 386.777 87.8404 386.367 88.2954C385.588 89.1484 384.564 90.2094 382.972 90.9184C382.183 91.2624 381.22 91.5184 380.177 91.4294C379.138 91.3554 378.105 90.9184 377.379 90.2834C375.894 88.9854 375.299 87.3434 375.134 85.4424C376.83 85.5944 378.165 86.0384 379.073 85.9704C379.53 85.9494 379.805 85.8504 380.069 85.7334L381.079 85.3104C381.931 84.9644 383.083 84.3394 384.69 83.9914C385.471 83.8494 386.332 83.8054 387.192 84.0324C388.041 84.2594 388.895 84.7814 389.321 85.6474Z" fill="#2E2E2E"/>
<path d="M391.048 51.1694C394.88 50.7414 398.987 49.4944 401.066 46.3464C402.816 43.6954 402.709 40.1874 401.486 37.2724C399.665 32.9374 395.382 29.6154 390.59 29.0274C385.796 28.4384 380.705 30.6994 378.195 34.6984C375.685 38.6974 376.01 44.2334 379.111 47.8214C382.212 51.4104 387.92 52.6704 392.246 50.5844" fill="#2E2E2E"/>
<path d="M402.217 36.6624C404.328 38.6454 404.344 42.1384 402.862 44.6094C401.381 47.0814 398.736 48.6724 396.02 49.7304C391.845 51.3564 387.064 51.9234 382.873 50.3404C378.681 48.7574 375.317 44.6934 375.503 40.2894" stroke="#2E2E2E" stroke-width="0.4047" stroke-miterlimit="10" stroke-linecap="round" stroke-linejoin="round"/>
<path d="M392.47 48.7224C396.411 48.2374 399.806 45.1514 400.782 41.4204C401.759 37.6894 400.388 33.5294 397.524 30.8624C394.659 28.1954 390.451 27.0304 386.52 27.5884C382.963 28.0934 379.566 30.0294 377.707 33.0114C375.848 35.9934 375.717 40.0084 377.695 42.9174C379.673 45.8264 383.801 47.2904 387.139 45.9944" stroke="#2E2E2E" stroke-width="0.4047" stroke-miterlimit="10" stroke-linecap="round" stroke-linejoin="round"/>
<path d="M436.975 165.363C427.563 169.477 418.969 170.745 417.782 168.195C416.595 165.645 423.262 160.244 432.674 156.13C442.086 152.016 450.679 150.748 451.867 153.298C453.055 155.847 446.387 161.249 436.975 165.363Z" fill="#2E2E2E"/>
<path d="M432.84 187.756L428.434 177.388L424.907 169.081L421.933 162.073L415.4 146.693C411.959 138.601 415.341 129.636 422.76 127.174C424.056 126.744 425.382 126.55 426.698 126.56C426.819 126.561 426.94 126.562 427.062 126.573C432.815 126.774 438.374 130.912 440.601 137.23L445.89 152.205L448.258 158.92L458.489 187.937" fill="#F5F5FF"/>
<path d="M432.84 187.756L428.434 177.388L424.907 169.081L421.933 162.073L415.4 146.693C411.959 138.601 415.341 129.636 422.76 127.174C424.056 126.744 425.382 126.55 426.698 126.56C426.819 126.561 426.94 126.562 427.062 126.573C432.815 126.774 438.374 130.912 440.601 137.23L445.89 152.205L448.258 158.92L458.489 187.937" stroke="#2E2E2E" stroke-width="0.535" stroke-miterlimit="10" stroke-linecap="round" stroke-linejoin="round"/>
<path d="M451.659 152.987C449.924 150.858 441.673 152.195 432.681 156.122C423.259 160.242 416.586 165.645 417.79 168.202C417.812 168.255 417.845 168.298 417.889 168.352L417.79 168.395L413.582 158.851C415.46 155.941 421.216 151.95 428.594 148.729C436.061 145.465 443.031 143.914 446.489 144.535L451.659 152.987Z" fill="#F5F5FF" stroke="#2E2E2E" stroke-width="0.5006" stroke-miterlimit="10" stroke-linecap="round" stroke-linejoin="round"/>
<path d="M446.489 144.534C443.032 143.913 436.061 145.465 428.594 148.728C421.215 151.949 415.461 155.94 413.583 158.85L407.386 144.78C403.31 135.514 407.717 124.942 416.984 121.807C418.74 121.208 420.531 120.919 422.308 120.919C428.659 120.919 434.746 124.568 437.872 130.474L446.489 144.534Z" fill="#2E2E2E"/>
<path d="M342.032 165.363C351.444 169.477 360.037 170.745 361.224 168.195C362.411 165.645 355.744 160.244 346.332 156.13C336.92 152.016 328.327 150.748 327.14 153.298C325.953 155.847 332.62 161.249 342.032 165.363Z" fill="#2E2E2E"/>
<path d="M346.167 187.756L350.574 177.388L354.101 169.081L357.075 162.073L363.609 146.693C367.05 138.601 363.668 129.636 356.248 127.174C354.953 126.744 353.626 126.55 352.311 126.56C352.189 126.561 352.068 126.562 351.947 126.573C346.193 126.774 340.634 130.912 338.407 137.23L333.118 152.205L330.75 158.92L320.52 187.937" fill="#F5F5FF"/>
<path d="M346.167 187.756L350.574 177.388L354.101 169.081L357.075 162.073L363.609 146.693C367.05 138.601 363.668 129.636 356.248 127.174C354.953 126.744 353.626 126.55 352.311 126.56C352.189 126.561 352.068 126.562 351.947 126.573C346.193 126.774 340.634 130.912 338.407 137.23L333.118 152.205L330.75 158.92L320.52 187.937" stroke="#2E2E2E" stroke-width="0.535" stroke-miterlimit="10" stroke-linecap="round" stroke-linejoin="round"/>
<path d="M327.348 152.987C329.082 150.858 337.334 152.195 346.326 156.122C355.748 160.242 362.42 165.645 361.217 168.202C361.195 168.255 361.162 168.298 361.117 168.352L361.217 168.395L365.425 158.851C363.548 155.941 357.792 151.95 350.414 148.729C342.947 145.465 335.976 143.914 332.519 144.535L327.348 152.987Z" fill="#F5F5FF" stroke="#2E2E2E" stroke-width="0.5006" stroke-miterlimit="10" stroke-linecap="round" stroke-linejoin="round"/>
<path d="M332.518 144.534C335.975 143.913 342.945 145.465 350.413 148.728C357.792 151.949 363.546 155.94 365.424 158.85L371.621 144.78C375.697 135.514 371.29 124.942 362.022 121.807C360.266 121.208 358.476 120.919 356.699 120.919C350.347 120.919 344.261 124.568 341.135 130.474L332.518 144.534Z" fill="#2E2E2E"/>
<path d="M428.95 188.258H350.18L350.589 177.076L350.876 169.008L351.24 159.1L352.411 127.107L352.588 122.346L355.128 121.457L369.897 116.289L372.748 115.294L374.161 114.791L377.851 112.869H378.966H400.286H400.728L404.869 114.716L406.272 115.209L409.123 116.204L424.322 121.522L426.665 122.346L426.83 127.118L427.459 145.137L427.934 158.908L428.277 168.869V168.923L428.586 177.921L428.95 188.258Z" fill="#F5F5FF" stroke="#2E2E2E" stroke-width="0.535" stroke-miterlimit="10" stroke-linecap="round" stroke-linejoin="round"/>
<path d="M401.466 112.421L404.552 114.484L405.897 114.953C404.891 122.724 398.044 128.723 389.742 128.723C381.477 128.723 374.642 122.759 373.588 115.035L374.958 114.554L378.2 112.147" fill="#F5F5FF"/>
<path d="M401.466 112.421L404.552 114.484L405.897 114.953C404.891 122.724 398.044 128.723 389.742 128.723C381.477 128.723 374.642 122.759 373.588 115.035L374.958 114.554L378.2 112.147" stroke="#2E2E2E" stroke-width="0.5156" stroke-miterlimit="10" stroke-linecap="round" stroke-linejoin="round"/>
<path d="M363.244 118.688V187.925" stroke="#2E2E2E" stroke-width="0.4622" stroke-miterlimit="10" stroke-linecap="round" stroke-linejoin="round"/>
<path d="M376.951 122.852V187.926" stroke="#2E2E2E" stroke-width="0.4622" stroke-miterlimit="10" stroke-linecap="round" stroke-linejoin="round"/>
<path d="M389.683 128.838L389.679 187.925" stroke="#2E2E2E" stroke-width="0.4622" stroke-miterlimit="10" stroke-linecap="round" stroke-linejoin="round"/>
<path d="M403.387 121.698V187.926" stroke="#2E2E2E" stroke-width="0.4622" stroke-miterlimit="10" stroke-linecap="round" stroke-linejoin="round"/>
<path d="M416.116 118.688V187.925" stroke="#2E2E2E" stroke-width="0.4622" stroke-miterlimit="10" stroke-linecap="round" stroke-linejoin="round"/>
<path d="M136.042 99.538C144.192 67.0171 123.764 34.2107 90.4157 26.2629C57.0672 18.3152 23.426 38.2356 15.276 70.7565C7.12594 103.277 27.5533 136.084 60.9018 144.032C94.2503 151.979 127.891 132.059 136.042 99.538Z" fill="#3B4EFF"/>
<path d="M43.127 55.2112C42.2462 52.7392 42.4308 49.8922 43.6234 47.5602C44.8159 45.2292 46.9981 43.4482 49.4869 42.7752C49.7504 38.9922 53.0616 36.0402 56.7706 36.1762C57.0721 34.3932 58.5149 32.7492 60.171 32.1082C61.8261 31.4672 63.8031 31.7862 65.1854 32.9162C65.6284 31.2392 66.7667 29.6502 68.431 29.2982C70.0953 28.9462 71.9288 29.6232 72.987 30.9812C73.8812 29.0222 75.8757 28.5602 77.9871 28.4132C80.0975 28.2652 82.2489 29.3672 83.3963 31.1842C84.8125 29.4492 87.1485 29.0252 89.2137 29.8312C91.279 30.6372 92.7259 32.8652 92.65 35.1232C93.98 34.0952 96.1037 34.4142 97.5916 35.1852C99.0795 35.9562 100.07 37.6342 100.044 39.3382C101.9 39.3782 103.565 40.4552 104.615 42.0172C105.665 43.5792 105.928 45.6642 105.3 47.4482C107.164 47.6902 108.529 49.8502 109.145 51.6642C109.762 53.4782 109.29 55.6302 107.974 57.0012C109.502 57.9892 110.02 60.3252 110.296 62.1512C110.572 63.9772 110.04 65.9152 108.874 67.3282C110.103 68.4862 110.276 70.9602 110.051 72.6532C109.826 74.3462 108.753 75.8972 107.266 76.6782C108.405 77.8712 107.8 80.4382 107.079 81.9342C106.358 83.4292 104.664 84.3692 103.043 84.1722C103.523 85.7502 102.29 88.1332 100.989 89.1142C99.6876 90.0962 97.7752 90.1312 96.4411 89.1972C96.0329 93.0622 91.28 97.3071 87.5002 96.8591C86.5537 98.4341 84.3603 99.8932 82.5545 100C80.7486 100.107 78.9141 99.2622 77.7954 97.8092C77.1288 99.5192 74.6626 101.414 72.8619 101.417C71.0602 101.421 69.3129 100.218 68.6402 98.5112C65.613 100.269 60.3863 98.2852 58.9353 95.0502C57.6064 96.3742 54.6192 97.0732 53.0431 96.0722C51.467 95.0702 50.6979 92.9152 51.2722 91.1122C49.7945 91.2642 47.9436 90.4681 46.9273 89.3611C45.9122 88.2541 45.4374 86.6512 45.6824 85.1542C44.2745 84.9732 42.9199 83.3282 42.4133 81.9742C41.9068 80.6202 42.1887 78.9912 43.1188 77.8962C41.8678 76.9602 41.3058 74.8552 41.2197 73.2732C41.1346 71.6912 41.7755 70.0842 42.9178 69.0132C40.6793 66.9482 40.3409 62.5532 42.563 60.4702C41.6688 59.9412 41.4053 59.1822 41.3653 58.1282C41.3274 57.0742 42.2759 55.8082 43.127 55.2112Z" fill="#2E2E2E"/>
<path d="M92.8346 72.2782C90.2986 76.2512 90.5437 80.9572 93.3822 82.7892C96.2216 84.6212 100.579 82.8872 103.116 78.9142C105.653 74.9412 105.408 70.2352 102.568 68.4032C99.7287 66.5702 95.3705 68.3052 92.8346 72.2782Z" fill="#F5F5FF" stroke="#2E2E2E" stroke-width="0.535" stroke-miterlimit="10" stroke-linecap="round" stroke-linejoin="round"/>
<path d="M100.431 70.3103C101.661 70.7783 102.595 71.9173 102.794 73.1893C102.993 74.4623 102.449 75.8203 101.419 76.6253" stroke="#2E2E2E" stroke-width="0.535" stroke-miterlimit="10" stroke-linecap="round" stroke-linejoin="round"/>
<path d="M58.5929 72.2782C61.1299 76.2512 60.8848 80.9572 58.0453 82.7892C55.2059 84.6212 50.8487 82.8872 48.3118 78.9142C45.7748 74.9412 46.0209 70.2352 48.8594 68.4032C51.6988 66.5702 56.056 68.3052 58.5929 72.2782Z" fill="#F5F5FF" stroke="#2E2E2E" stroke-width="0.535" stroke-miterlimit="10" stroke-linecap="round" stroke-linejoin="round"/>
<path d="M50.9955 70.3103C49.766 70.7783 48.8318 71.9173 48.6329 73.1893C48.434 74.4623 48.9774 75.8203 50.008 76.6253" stroke="#2E2E2E" stroke-width="0.535" stroke-miterlimit="10" stroke-linecap="round" stroke-linejoin="round"/>
<path d="M87.8889 118.262C88.1186 124.98 82.6048 130.535 75.7159 130.535C68.9643 130.535 63.5315 125.192 63.5315 118.664C63.5315 118.53 63.5315 118.396 63.5428 118.262L64.8953 100.557L65.2389 96.0751L65.9146 87.2781H85.5037L86.5815 101.183L87.3496 111.299L87.8889 118.262Z" fill="#F5F5FF" stroke="#2E2E2E" stroke-width="0.5589" stroke-miterlimit="10" stroke-linecap="round" stroke-linejoin="round"/>
<path d="M87.3497 111.298C80.9191 111.745 73.8364 108.627 68.9757 102.568C67.3371 100.534 66.0871 98.3321 65.239 96.0741L65.9148 87.2771H85.5039L86.5816 101.182L87.3497 111.298Z" fill="#2E2E2E"/>
<path d="M96.6853 84.0531C95.9224 85.9601 94.82 87.9561 93.4941 89.8881C90.9387 93.6081 87.5537 97.0991 84.1738 99.3131C80.4679 101.734 75.6103 102.526 71.3834 101.12C68.0589 100.016 65.3148 97.6951 62.862 95.2381C59.8041 92.1791 57.0118 88.7541 55.4439 84.7611C54.2267 81.6551 53.7057 78.2001 53.5673 74.6621C53.3735 69.7601 53.9119 64.7051 54.3425 60.1991C54.9722 53.5611 59.0965 47.2601 64.9764 43.8821C70.7415 40.5751 78.1114 40.0791 84.2887 42.5951C90.4598 45.1111 95.2866 50.5681 96.9212 56.8981C98.0902 61.3981 97.6902 66.0701 97.7631 70.6581C97.7815 71.9451 97.842 73.2451 97.8718 74.5441C97.963 77.7751 97.8964 81.0051 96.6853 84.0531Z" fill="#F5F5FF" stroke="#2E2E2E" stroke-width="0.535" stroke-miterlimit="10" stroke-linecap="round" stroke-linejoin="round"/>
<path d="M97.9505 74.5462V74.7062L97.8295 74.5992C96.3047 73.3042 95.3715 71.4322 95.2731 69.4742L94.4722 54.6552C93.6713 54.3452 92.9033 54.0242 92.1239 53.6712C90.9611 53.1252 89.831 52.5372 88.7779 51.9052C86.485 50.5672 84.4874 49.0372 82.9739 47.4652C80.801 47.9792 78.3214 48.2462 75.7978 48.2462C72.8568 48.2462 70.0153 47.8822 67.5799 47.1872C66.1647 48.7282 64.2995 50.2152 62.1491 51.5422C60.9206 52.3122 59.5927 53.0292 58.1878 53.6712C57.8802 53.8102 57.5407 53.9602 57.1347 54.1312L56.3338 69.4752C56.2241 71.5192 55.2366 73.4232 53.6235 74.7182L53.5025 74.8142L53.4912 74.6642C53.3159 70.1062 53.7763 65.3552 54.1711 61.1712L54.2696 60.1972C54.6756 55.9062 56.4968 51.7972 59.3383 48.4912C60.9186 46.6402 62.8167 45.0462 64.9455 43.8152C70.7167 40.5092 78.145 40.0062 84.3223 42.5312C87.3618 43.7612 90.0936 45.7302 92.2665 48.1702C94.505 50.6632 96.1621 53.6702 96.9958 56.8802C97.8952 60.3472 97.8736 63.9632 97.8408 67.4622C97.8295 68.5112 97.8295 69.6022 97.8408 70.6612C97.8521 71.3992 97.8736 72.1592 97.9064 72.8972C97.9177 73.4442 97.9392 73.9902 97.9505 74.5462Z" fill="#2E2E2E"/>
<path d="M92.2665 48.1711C90.0936 45.7311 87.3618 43.7631 84.3224 42.5321C78.1451 40.0071 70.7167 40.5101 64.9455 43.8161C62.8167 45.0471 60.9186 46.6411 59.3384 48.4921C59.7332 49.1381 60.2295 49.7501 60.7986 50.3321C60.8571 51.6811 61.4672 53.0071 62.4886 53.9221C63.6863 54.9941 65.4142 55.4761 67.0118 55.1831C67.3184 56.3631 68.7448 57.5771 69.9805 57.7531C71.2151 57.9291 72.5297 57.3191 73.1696 56.2741C73.8618 57.3181 75.2984 58.2331 76.5679 58.1281C77.8385 58.0231 79.0177 57.1921 79.5202 56.0501C80.2698 57.2841 81.4573 58.3601 82.9134 58.1671C84.3706 57.9741 85.6575 56.8721 86.0421 55.4881C87.8766 56.0041 90.0331 55.1501 90.4915 53.3431C90.7068 52.4961 90.5202 51.6011 90.0792 50.8441C90.9816 50.0231 91.7302 49.1301 92.2665 48.1711Z" fill="#2E2E2E"/>
<path d="M82.2326 89.1033C82.2326 90.7633 78.5871 92.1103 76.1117 92.1103C73.784 92.1103 69.0464 90.7643 69.0464 89.1033" fill="#F5F5FF"/>
<path d="M82.2326 89.1033C82.2326 90.7633 78.5871 92.1103 76.1117 92.1103C73.784 92.1103 69.0464 90.7643 69.0464 89.1033" stroke="#2E2E2E" stroke-width="0.6212" stroke-miterlimit="10" stroke-linecap="round" stroke-linejoin="round"/>
<path d="M82.2326 89.0582V89.0892H69.0464V89.0582C69.0464 87.7952 73.6363 86.7712 76.1117 86.7712C78.4405 86.7712 82.2326 87.7952 82.2326 89.0582Z" fill="#2E2E2E" stroke="#2E2E2E" stroke-width="0.4608" stroke-miterlimit="10"/>
<path d="M81.1776 87.7793C81.8432 88.1953 82.8799 88.2773 83.7587 87.8423L83.7669 87.8383C83.9033 87.7703 84.0704 87.8243 84.1402 87.9573C84.1945 88.0613 84.173 88.1833 84.0961 88.2643C83.2983 89.1033 82.0011 89.5793 80.6475 89.3453L80.5562 89.3293C80.0825 89.2473 79.7666 88.8073 79.8507 88.3453C79.9348 87.8833 80.386 87.5753 80.8597 87.6573C80.9746 87.6773 81.0843 87.7213 81.1776 87.7793Z" fill="#2E2E2E"/>
<path d="M70.7806 89.3453C69.428 89.5783 68.1308 89.1033 67.332 88.2643C67.2274 88.1543 67.2346 87.9833 67.3463 87.8813C67.4335 87.8023 67.5596 87.7883 67.6601 87.8383L67.6683 87.8423C68.5471 88.2773 69.5838 88.1953 70.2483 87.7793C70.6534 87.5263 71.1918 87.6403 71.4512 88.0353C71.7106 88.4303 71.5937 88.9553 71.1887 89.2083C71.0902 89.2703 70.9826 89.3103 70.8739 89.3293L70.7806 89.3453Z" fill="#2E2E2E"/>
<path d="M73.7429 88.8171C74.2905 89.3071 75.0175 89.6021 75.76 89.6351C76.5024 89.6681 77.2541 89.4391 77.8457 89.0001" fill="#2E2E2E"/>
<path d="M73.7429 88.8171C74.2905 89.3071 75.0175 89.6021 75.76 89.6351C76.5024 89.6681 77.2541 89.4391 77.8457 89.0001" stroke="#2E2E2E" stroke-width="0.9216" stroke-miterlimit="10" stroke-linecap="round" stroke-linejoin="round"/>
<path d="M79.0422 66.6431C79.5601 65.4151 80.5886 64.5101 81.7289 63.8861C82.8815 63.2681 84.189 62.9301 85.5108 62.8881C86.8326 62.8441 88.1564 63.1021 89.3459 63.6421C90.5242 64.1891 91.6081 65.0151 92.2264 66.2001L88.703 66.1071C87.6355 66.0881 86.6203 66.0931 85.6153 66.1211C84.6104 66.1521 83.5993 66.2081 82.539 66.2961C81.4684 66.3781 80.3804 66.4961 79.0422 66.6431Z" fill="#2E2E2E"/>
<path d="M72.3841 66.6431C71.0459 66.4961 69.9579 66.3781 68.8883 66.2941C67.828 66.2061 66.8179 66.1501 65.812 66.1191C64.806 66.0911 63.7919 66.0861 62.7244 66.1051L59.2009 66.1991C59.8193 65.0141 60.9032 64.1881 62.0814 63.6411C63.2709 63.1011 64.5938 62.8431 65.9166 62.8871C67.2384 62.9291 68.5458 63.2671 69.6984 63.8851C70.8387 64.5111 71.8662 65.4151 72.3841 66.6431Z" fill="#2E2E2E"/>
<path d="M79.6587 75.3082C79.8966 74.7922 80.1622 74.2922 80.4134 73.7842L80.435 73.7532C81.0615 72.8352 81.847 71.9482 82.8971 71.3682C83.9266 70.7712 85.1674 70.4692 86.3692 70.5422C87.5639 70.6002 88.7421 70.9492 89.7563 71.5512C90.2629 71.8492 90.7253 72.2052 91.1519 72.5892C91.5765 72.9672 91.9589 73.4272 92.1148 73.9862L92.1179 73.9962C92.1558 74.1322 92.0738 74.2732 91.9343 74.3102C91.8738 74.3262 91.8133 74.3202 91.76 74.2982C91.195 74.0572 90.8279 73.7372 90.4198 73.4232C90.0157 73.1152 89.584 72.8492 89.1369 72.6262C88.2509 72.1722 87.2778 71.9112 86.2913 71.8342C85.311 71.7572 84.3327 71.9282 83.4436 72.3502C82.5597 72.7802 81.7609 73.4352 81.0759 74.2132L81.0964 74.1832C80.7529 74.6372 80.4247 75.1002 80.0689 75.5472C79.9879 75.6492 79.8361 75.6682 79.7315 75.5882C79.6402 75.5222 79.6136 75.4052 79.6587 75.3082Z" fill="#2E2E2E"/>
<path d="M83.7013 73.3262C83.7813 72.2422 84.7473 71.4272 85.8589 71.5052C86.9705 71.5832 87.8062 72.5252 87.7262 73.6092C87.6462 74.6932 86.6803 75.5082 85.5687 75.4302C84.4571 75.3522 83.6214 74.4102 83.7013 73.3262Z" fill="#2E2E2E"/>
<path d="M89.7854 75.1222C90.5278 74.9612 91.2303 74.6322 91.824 74.1692" stroke="#2E2E2E" stroke-width="0.535" stroke-miterlimit="10" stroke-linecap="round" stroke-linejoin="round"/>
<path d="M79.6118 72.0052C80.4435 70.6232 81.7888 69.5432 83.3383 69.0122C84.8877 68.4812 86.63 68.5032 88.1651 69.0742" stroke="#2E2E2E" stroke-width="0.535" stroke-miterlimit="10" stroke-linecap="round" stroke-linejoin="round"/>
<path d="M71.3589 75.5492C71.003 75.1022 70.6749 74.6392 70.3314 74.1852L70.3519 74.2152C69.6669 73.4372 68.8681 72.7822 67.9841 72.3522C67.0951 71.9302 66.1168 71.7592 65.1365 71.8362C64.151 71.9132 63.1779 72.1742 62.2919 72.6282C61.8448 72.8512 61.4141 73.1172 61.009 73.4252C60.6009 73.7382 60.2338 74.0582 59.6688 74.3002C59.5355 74.3572 59.3817 74.2982 59.3232 74.1682C59.2986 74.1122 59.2955 74.0532 59.3099 73.9982L59.3129 73.9882C59.4688 73.4292 59.8513 72.9692 60.2758 72.5912C60.7024 72.2062 61.1639 71.8502 61.6715 71.5532C62.6856 70.9512 63.8629 70.6022 65.0585 70.5442C66.2604 70.4712 67.5011 70.7732 68.5307 71.3702C69.5808 71.9502 70.3673 72.8372 70.9928 73.7552L71.0143 73.7862C71.2656 74.2942 71.5301 74.7942 71.7691 75.3102C71.8234 75.4282 71.7701 75.5672 71.6481 75.6212C71.5445 75.6642 71.4255 75.6322 71.3589 75.5492Z" fill="#2E2E2E"/>
<path d="M67.7257 73.3262C67.6457 72.2422 66.6798 71.4272 65.5682 71.5052C64.4566 71.5832 63.6209 72.5252 63.7009 73.6092C63.7808 74.6932 64.7468 75.5082 65.8584 75.4302C66.97 75.3522 67.8057 74.4102 67.7257 73.3262Z" fill="#2E2E2E"/>
<path d="M61.6416 75.1222C60.9002 74.9612 60.1968 74.6322 59.603 74.1692" stroke="#2E2E2E" stroke-width="0.535" stroke-miterlimit="10" stroke-linecap="round" stroke-linejoin="round"/>
<path d="M71.815 72.0052C70.9833 70.6232 69.638 69.5432 68.0885 69.0122C66.539 68.4812 64.7968 68.5032 63.2617 69.0742" stroke="#2E2E2E" stroke-width="0.535" stroke-miterlimit="10" stroke-linecap="round" stroke-linejoin="round"/>
<path d="M72.5339 82.4963C71.4469 82.6253 70.8265 81.4753 71.3372 80.5312" stroke="#2E2E2E" stroke-width="0.6206" stroke-miterlimit="10" stroke-linecap="round" stroke-linejoin="round"/>
<path d="M78.8928 82.6022C79.9788 82.7312 80.5992 81.5812 80.0895 80.6372" stroke="#2E2E2E" stroke-width="0.6206" stroke-miterlimit="10" stroke-linecap="round" stroke-linejoin="round"/>
<path d="M72.4385 82.3403C74.1879 83.9063 77.1514 83.9533 78.9511 82.4433" stroke="#2E2E2E" stroke-width="0.6206" stroke-miterlimit="10" stroke-linecap="round" stroke-linejoin="round"/>
<path d="M123.028 164.131C113.679 168.245 105.143 169.513 103.964 166.963C102.785 164.413 109.407 159.011 118.756 154.898C128.105 150.784 136.641 149.516 137.82 152.066C139 154.615 132.377 160.017 123.028 164.131Z" fill="#2E2E2E"/>
<path d="M118.921 186.525L114.545 176.157L111.041 167.85L108.087 160.842L101.597 145.462C98.1795 137.37 101.539 128.405 108.909 125.943C110.196 125.513 111.513 125.319 112.82 125.329C112.941 125.33 113.061 125.331 113.182 125.342C118.897 125.543 124.418 129.681 126.63 135.999L131.884 150.974L134.236 157.689L144.398 186.706" fill="#F5F5FF"/>
<path d="M118.921 186.525L114.545 176.157L111.041 167.85L108.087 160.842L101.597 145.462C98.1795 137.37 101.539 128.405 108.909 125.943C110.196 125.513 111.513 125.319 112.82 125.329C112.941 125.33 113.061 125.331 113.182 125.342C118.897 125.543 124.418 129.681 126.63 135.999L131.884 150.974L134.236 157.689L144.398 186.706" stroke="#2E2E2E" stroke-width="0.535" stroke-miterlimit="10" stroke-linecap="round" stroke-linejoin="round"/>
<path d="M137.618 151.757C135.889 149.629 127.7 150.969 118.76 154.893C109.409 159.01 102.779 164.413 103.968 166.969C103.997 167.024 104.024 167.066 104.067 167.121L103.968 167.163L93.6397 143.55C89.5872 134.279 93.9658 123.709 103.175 120.573C104.918 119.979 106.689 119.689 108.459 119.689C114.765 119.689 120.814 123.337 123.917 129.25L137.618 151.757Z" fill="#F5F5FF" stroke="#2E2E2E" stroke-width="0.535" stroke-miterlimit="10" stroke-linecap="round" stroke-linejoin="round"/>
<path d="M28.5237 164.289C37.8727 168.403 46.4086 169.671 47.5878 167.121C48.7671 164.571 42.1448 159.169 32.7958 155.055C23.4468 150.941 14.912 149.673 13.7317 152.223C12.5524 154.773 19.1747 160.175 28.5237 164.289Z" fill="#2E2E2E"/>
<path d="M6.92603 186.707L17.3056 157.774L19.7082 151.065L25.0734 136.128C27.3775 129.697 33.116 125.556 38.9538 125.556H39.0307C40.3146 125.567 41.5984 125.77 42.8597 126.198C50.2112 128.712 53.5141 137.701 50.0358 145.768L43.4309 161.101V161.112L40.4243 168.088L37.2208 175.524L32.4043 186.706" fill="#F5F5FF"/>
<path d="M6.92603 186.707L17.3056 157.774L19.7082 151.065L25.0734 136.128C27.3775 129.697 33.116 125.556 38.9538 125.556H39.0307C40.3146 125.567 41.5984 125.77 42.8597 126.198C50.2112 128.712 53.5141 137.701 50.0358 145.768L43.4309 161.101V161.112L40.4243 168.088L37.2208 175.524L32.4043 186.706" stroke="#2E2E2E" stroke-width="0.535" stroke-miterlimit="10" stroke-linecap="round" stroke-linejoin="round"/>
<path d="M13.9348 151.914C15.6637 149.786 23.8529 151.126 32.7928 155.05C42.1438 159.167 48.7744 164.57 47.5849 167.126C47.5562 167.181 47.5285 167.223 47.4854 167.278L47.5849 167.32L57.9132 143.707C61.9657 134.436 57.5871 123.866 48.3775 120.73C46.6353 120.136 44.8644 119.846 43.0934 119.846C36.7879 119.846 30.7388 123.494 27.6358 129.407L13.9348 151.914Z" fill="#F5F5FF" stroke="#2E2E2E" stroke-width="0.535" stroke-miterlimit="10" stroke-linecap="round" stroke-linejoin="round"/>
<path d="M114.783 186.707H36.5396L36.9456 175.525L37.2307 167.457L37.5937 157.549L38.7566 125.556L38.934 120.192L56.1256 114.738L58.9569 113.743L60.3607 113.24L64.0256 111.318H65.1341H86.3107H86.7496L90.8636 113.165L92.2572 113.658L95.0885 114.653L112.547 120.192L112.677 125.567L113.302 143.586L113.774 157.357L114.114 167.318V167.372L114.421 176.37L114.783 186.707Z" fill="#F5F5FF" stroke="#2E2E2E" stroke-width="0.535" stroke-miterlimit="10" stroke-linecap="round" stroke-linejoin="round"/>
<path d="M87.4592 110.84L90.3151 112.933L91.6512 113.402C90.6524 121.173 83.8507 127.172 75.605 127.172C67.3953 127.172 60.6058 121.208 59.5588 113.484L60.9196 113.003L64.1641 110.458" fill="#F5F5FF"/>
<path d="M87.4592 110.84L90.3151 112.933L91.6512 113.402C90.6524 121.173 83.8507 127.172 75.605 127.172C67.3953 127.172 60.6058 121.208 59.5588 113.484L60.9196 113.003L64.1641 110.458" stroke="#2E2E2E" stroke-width="0.535" stroke-miterlimit="10" stroke-linecap="round" stroke-linejoin="round"/>
</svg>
