<svg width="164" height="146" viewBox="0 0 164 146" fill="none" xmlns="http://www.w3.org/2000/svg">
<path d="M48.513 0.334984C48.726 0.805984 49.011 1.25898 49.138 1.75198C49.598 3.54098 50.013 5.34098 50.429 7.14098C50.671 8.19098 50.598 8.32998 49.576 8.63898C44.084 10.299 38.589 11.946 33.096 13.598C32.272 13.846 31.449 14.094 30.562 14.36C32.034 33.407 33.504 52.43 34.975 71.471C32.092 71.989 29.243 72.501 26.213 73.045C24.695 54.365 23.18 35.728 21.659 17.027C20.642 17.326 19.605 17.63 18.568 17.937C13.952 19.303 9.33698 20.672 4.71998 22.033C4.29798 22.158 3.86599 22.256 3.43299 22.338C2.58299 22.498 2.40796 22.434 2.16596 21.582C1.66796 19.826 1.12699 18.071 0.798985 16.28C0.341985 13.787 0.41796 14.119 2.49796 13.499C9.05996 11.544 15.647 9.67099 22.229 7.78499C30.792 5.33199 39.359 2.89699 47.924 0.451988C47.999 0.430988 48.063 0.373984 48.132 0.333984C48.26 0.334984 48.387 0.334984 48.513 0.334984Z" fill="#152C69"/>
<path d="M139.313 34.9229C142.961 34.3679 145.964 32.7379 148.571 30.3229C152.187 26.9749 154.008 22.7119 154.86 17.9509C155.429 14.7719 155.708 11.5739 155.597 8.34592C155.572 7.63292 155.489 6.92092 155.404 6.21192C155.322 5.52292 155.568 5.18992 156.278 5.11992C157.994 4.95092 159.71 4.78192 161.426 4.62292C161.697 4.59792 161.978 4.58692 162.244 4.62992C162.691 4.70092 163.026 4.92892 163.083 5.42892C163.881 12.4749 163.364 19.4159 161.373 26.2309C160.028 30.8329 157.265 34.4179 153.398 37.1929C153.334 37.2389 153.282 37.2999 153.252 37.3279C158.643 40.3619 161.214 45.1749 162.073 51.0729C162.791 56.0019 162.893 60.9639 162.76 65.9349C162.736 66.8399 162.746 67.7449 162.73 68.6499C162.716 69.3929 162.508 69.6679 161.778 69.7129C161.025 69.7589 160.265 69.7249 159.511 69.6859C157.935 69.6039 156.36 69.5069 154.787 69.3939C153.984 69.3359 153.761 69.0509 153.874 68.2999C154.359 65.0839 154.384 61.8469 154.359 58.6049C154.331 55.0459 153.621 51.6319 152.212 48.3639C150.377 44.1059 147.109 42.0829 142.482 42.3569C141.376 42.4219 140.272 42.5429 139.145 42.6389C139.089 44.0959 139.027 45.4579 138.987 46.8209C138.84 51.8679 138.702 56.9149 138.555 61.9619C138.537 62.5919 138.488 63.2219 138.439 63.8499C138.399 64.3619 138.176 64.7469 137.617 64.8039C136.386 64.9299 135.155 65.0569 133.921 65.1439C133.169 65.1969 132.411 65.1969 131.656 65.1849C131.195 65.1779 130.957 64.9549 130.96 64.4309C130.969 63.2749 130.873 62.1179 130.891 60.9619C131.009 53.1549 131.135 45.3479 131.278 37.5419C131.383 31.7979 131.513 26.0539 131.642 20.3109C131.758 15.1779 131.887 10.0449 132.015 4.91192C132.023 4.57592 132.109 4.23892 132.089 3.90592C132.051 3.28992 132.349 3.02992 132.922 2.97392C134.868 2.78392 136.811 2.56992 138.759 2.40192C139.491 2.33892 139.803 2.60592 139.829 3.40192C139.882 5.08392 139.888 6.76792 139.857 8.45092C139.783 12.4479 139.668 16.4439 139.583 20.4409C139.486 25.0269 139.403 29.6139 139.314 34.1999C139.309 34.4079 139.313 34.6139 139.313 34.9229Z" fill="#152C69"/>
<path d="M57.1431 55.257C54.5441 55.661 52.016 56.054 49.468 56.45C49.468 58.145 49.4411 59.883 49.4751 61.619C49.5161 63.68 49.6191 65.74 49.6741 67.802C49.6951 68.581 49.4901 68.93 48.7281 69.065C47.0751 69.356 45.4081 69.577 43.7401 69.768C43.1591 69.835 42.7551 69.408 42.7061 68.813C42.4391 65.549 42.1541 62.287 41.9271 59.021C41.6601 55.183 41.4361 51.341 41.2111 47.5C41.0541 44.813 40.9351 42.123 40.7841 39.436C40.6001 36.161 40.3901 32.888 40.2111 29.612C40.0911 27.428 39.9921 25.243 39.9091 23.058C39.8751 22.162 40.0581 21.883 40.9511 21.682C42.4871 21.337 44.0371 21.039 45.5911 20.791C46.4801 20.649 46.6841 20.827 46.7811 21.735C47.0491 24.243 47.2771 26.756 47.5211 29.267C47.8291 32.448 48.1361 35.629 48.4451 38.809C48.7231 41.676 49.0041 44.543 49.2841 47.41C49.3021 47.594 49.3271 47.778 49.3621 48.074C51.7111 47.636 54.016 47.206 56.235 46.791C56.235 45.334 56.2551 43.991 56.2311 42.65C56.1431 37.684 56.0201 32.719 55.9471 27.753C55.8451 20.787 55.7751 13.821 55.6951 6.85601C55.6911 6.52101 55.6371 6.141 55.7711 5.86C55.9461 5.494 56.2361 4.997 56.5621 4.922C58.1961 4.543 59.8551 4.273 61.5101 3.99C61.7481 3.949 62.0091 4.042 62.2591 4.073C62.6761 4.124 62.8871 4.353 62.9191 4.778C63.0011 5.867 63.1341 6.954 63.1831 8.045C63.4121 13.129 63.6201 18.214 63.8351 23.299C64.0451 28.258 64.2491 33.218 64.4651 38.177C64.7061 43.704 64.9701 49.23 65.2011 54.757C65.3781 59.003 65.5261 63.249 65.6741 67.496C65.7061 68.415 65.5851 68.604 64.6521 68.763C63.0791 69.032 61.4921 69.221 59.9111 69.442C59.8071 69.457 59.7001 69.446 59.5961 69.456C58.6241 69.549 58.3611 69.389 58.2571 68.441C58.0481 66.54 57.8741 64.635 57.7171 62.73C57.5091 60.242 57.3321 57.751 57.1431 55.257Z" fill="#152C69"/>
<path d="M105.778 29.7041C105.897 29.3731 106.01 29.0391 106.137 28.7111C107.729 24.5831 110.354 21.4181 114.546 19.7241C116.24 19.0391 118.002 18.8101 119.808 19.0801C122.889 19.5411 124.864 21.3961 126.055 24.1751C127.045 26.4851 127.442 28.9321 127.598 31.4211C127.945 36.9601 127.515 42.4771 127.132 47.9981C126.784 53.0201 126.004 57.9831 125.272 62.9541C125.202 63.4321 125.146 63.9131 125.083 64.3921C124.999 65.0251 124.647 65.4141 124.001 65.3981C122.174 65.3531 120.347 65.2741 118.52 65.2031C118.205 65.1911 117.891 65.1611 117.577 65.1311C116.844 65.0591 116.618 64.7761 116.723 64.0451C116.756 63.8171 116.809 63.5901 116.875 63.3691C118.079 59.3261 118.712 55.1661 119.347 51.0121C119.868 47.6061 120.337 44.1881 120.695 40.7621C121.073 37.1441 121.376 33.5081 120.627 29.8901C120.516 29.3561 120.388 28.8211 120.215 28.3041C119.525 26.2481 117.729 25.5631 115.845 26.6131C114.847 27.1701 114.097 27.9821 113.437 28.8951C112.208 30.5941 111.587 32.5671 110.915 34.5141C109.613 38.2881 108.923 42.2031 108.274 46.1251C107.821 48.8631 107.377 51.6041 106.975 54.3501C106.854 55.1771 106.847 56.0261 106.852 56.8641C106.867 59.3261 106.916 61.7881 106.946 64.2491C106.956 65.0811 106.784 65.3361 105.965 65.5481C104.073 66.0371 102.178 66.5211 100.275 66.9631C99.1182 67.2321 98.7782 66.9661 98.6352 65.8021C98.5742 65.3021 98.5242 64.7981 98.5142 64.2951C98.3822 57.1211 98.2922 49.9451 98.1222 42.7721C97.9802 36.7981 97.7442 30.8271 97.5512 24.8551C97.5092 23.5721 97.4652 22.2901 97.4362 21.0071C97.4202 20.2781 97.7102 19.8021 98.4242 19.6651C100.322 19.3011 102.229 18.9741 104.143 18.7031C104.92 18.5931 105.342 19.1121 105.365 20.0341C105.405 21.6751 105.414 23.3161 105.462 24.9571C105.508 26.5311 105.586 28.1031 105.649 29.6761C105.692 29.6861 105.735 29.6951 105.778 29.7041Z" fill="#152C69"/>
<path d="M87.9768 57.2339C84.9848 57.5789 82.1258 57.9079 79.2018 58.2449C79.1928 58.3909 79.1698 58.5719 79.1718 58.7519C79.2048 61.2759 79.2419 63.8009 79.2769 66.3249C79.2889 67.1939 79.0418 67.5639 78.1848 67.6429C76.2808 67.8179 74.3718 68.0169 72.4638 68.0239C71.2248 68.0279 71.1598 67.8199 71.0978 66.8369C70.9248 64.0899 70.7088 61.3409 70.6578 58.5899C70.5478 52.6999 70.4659 46.8089 70.4969 40.9179C70.5229 36.0349 70.8578 31.1629 72.1328 26.4159C72.9268 23.4579 74.0779 20.6569 76.4279 18.5529C78.9549 16.2889 81.8509 15.2229 85.2639 16.1089C86.6889 16.4789 87.8559 17.2909 88.8939 18.3039C91.2809 20.6329 92.5538 23.5589 93.3468 26.7269C94.1768 30.0459 94.6118 33.4369 94.6108 36.8449C94.6078 43.1749 94.4768 49.5059 94.3318 55.8359C94.2498 59.4299 94.0308 63.0219 93.8788 66.6149C93.8408 67.5029 93.5608 67.8299 92.7008 67.7959C91.1678 67.7349 89.6359 67.6289 88.1049 67.5329C87.5439 67.4979 87.3479 67.1309 87.3719 66.6249C87.4399 65.1969 87.5068 63.7689 87.5998 62.3429C87.7108 60.6499 87.8488 58.9579 87.9768 57.2339ZM88.1538 49.7239C88.1538 49.4959 88.1548 49.2679 88.1538 49.0399C88.1158 42.5829 87.8618 36.1379 86.9998 29.7319C86.7958 28.2159 86.4918 26.7059 86.1068 25.2259C85.7748 23.9479 84.7028 23.1589 83.5718 23.2569C82.3208 23.3659 81.2018 23.8709 80.6078 25.0219C80.0828 26.0379 79.5508 27.1239 79.3788 28.2339C79.0298 30.4909 78.7729 32.7829 78.7469 35.0639C78.6939 39.7729 78.8149 44.4839 78.8719 49.1949C78.8789 49.7989 78.9319 50.4019 78.9629 50.9999C82.0339 50.5739 85.0458 50.1559 88.1538 49.7239Z" fill="#152C69"/>
<path d="M103.576 98.896C103.45 105.746 102.285 112.085 99.1799 117.965C97.9109 120.368 96.3179 122.524 94.1779 124.238C90.0479 127.544 85.2469 127.293 81.4989 123.558C79.0349 121.102 77.5709 118.069 76.5529 114.799C75.0329 109.915 74.6389 104.908 75.0189 99.826C75.4009 94.727 76.5209 89.811 78.7199 85.173C80.0199 82.43 81.6439 79.913 83.9979 77.938C85.4709 76.702 87.1069 75.776 89.0339 75.469C91.8029 75.028 94.1859 75.907 96.2679 77.687C98.7039 79.77 100.19 82.487 101.305 85.432C102.503 88.599 103.121 91.893 103.361 95.262C103.453 96.561 103.515 97.863 103.576 98.896ZM95.6679 96.07C95.6209 95.206 95.5959 93.879 95.4659 92.563C95.2529 90.403 94.9119 88.255 93.9899 86.27C93.6169 85.466 93.1089 84.68 92.5009 84.039C91.6779 83.171 90.6449 83.125 89.7159 83.878C89.0409 84.425 88.3639 85.07 87.9469 85.816C87.1299 87.276 86.3379 88.786 85.8109 90.367C83.8149 96.345 83.2989 102.494 84.0539 108.74C84.3119 110.872 84.7579 112.98 85.8319 114.884C87.2199 117.344 89.0079 117.54 90.7679 115.324C91.5939 114.284 92.2899 113.091 92.8159 111.868C94.9189 106.98 95.5909 101.808 95.6679 96.07Z" fill="#152C69"/>
<path d="M56.558 117.99C48.47 116.253 43.964 111.126 42.156 103.408C40.552 96.5621 40.126 89.6031 40.465 82.5921C40.517 81.5231 40.629 80.4561 40.701 79.3881C40.732 78.9271 40.995 78.7371 41.419 78.6631C43.034 78.3801 44.648 78.0921 46.259 77.7921C46.817 77.6881 47.364 77.5281 47.922 77.4251C48.689 77.2831 49.022 77.5361 48.987 78.3051C48.949 79.1431 48.811 79.9771 48.745 80.8151C48.258 86.9791 48.336 93.1281 49.206 99.2611C49.567 101.804 50.409 104.152 51.826 106.293C52.972 108.023 54.501 109.253 56.529 109.783C58.742 110.361 60.963 109.541 62.339 107.706C63.589 106.039 64.1 104.093 64.478 102.099C65.244 98.0571 65.279 93.9781 64.883 89.9051C64.544 86.4141 64.046 82.9391 63.613 79.4571C63.506 78.6001 63.745 78.1571 64.625 78.0261C65.849 77.8431 67.091 77.7781 68.325 77.6681C68.932 77.6131 69.539 77.5391 70.147 77.5281C70.829 77.5151 71.256 77.9201 71.313 78.5901C71.796 84.2211 72.469 89.8381 72.52 95.5011C72.554 99.3461 72.328 103.16 71.19 106.86C69.878 111.125 67.538 114.598 63.438 116.681C63.281 116.761 63.137 117.076 63.158 117.263C63.399 119.436 63.697 121.603 63.932 123.777C64.316 127.33 64.661 130.888 65.028 134.442C65.324 137.307 65.63 140.17 65.931 143.034C66.031 143.991 65.787 144.443 64.824 144.616C63.484 144.858 62.122 144.988 60.765 145.125C60.06 145.196 59.808 144.673 59.71 144.102C59.512 142.942 59.329 141.778 59.187 140.61C58.518 135.099 57.86 129.587 57.21 124.073C57.003 122.318 56.834 120.559 56.647 118.802C56.615 118.511 56.583 118.219 56.558 117.99Z" fill="#152C69"/>
<path d="M106.919 107.165C106.952 103.488 107.446 99.8581 108.02 96.2441C108.762 91.5731 109.559 86.9101 110.425 82.2611C110.704 80.7631 111.287 79.3221 111.711 77.8491C111.847 77.3761 112.207 77.3701 112.56 77.3961C113.398 77.4571 114.233 77.5641 115.071 77.6361C116.202 77.7331 117.334 77.8261 118.467 77.9001C119.718 77.9811 120.023 78.2981 119.813 79.5141C119.38 82.0211 118.846 84.5111 118.462 87.0251C117.718 91.8881 117.009 96.7561 116.365 101.633C116.073 103.841 115.875 106.071 115.814 108.296C115.766 110.072 115.898 111.867 116.123 113.631C116.301 115.026 117.176 116.09 118.357 116.858C119.41 117.543 120.378 117.448 121.286 116.581C122.361 115.555 123.018 114.263 123.548 112.9C124.699 109.942 125.371 106.853 125.771 103.725C126.334 99.3271 126.758 94.9111 127.186 90.4981C127.527 86.9831 127.783 83.4591 128.084 79.9401C128.145 79.2261 128.541 78.6971 129.265 78.6721C131.258 78.6031 133.256 78.5731 135.247 78.6521C136.165 78.6881 136.205 78.8651 136.203 79.7831C136.185 86.1661 135.807 92.5261 134.821 98.8341C134.126 103.278 133.362 107.714 132.485 112.125C131.892 115.109 130.791 117.937 129.075 120.491C127.306 123.123 125.015 125.003 121.834 125.682C116.94 126.727 111.501 124.12 109.258 119.651C107.881 116.907 107.35 113.965 107.125 110.946C107.031 109.688 106.986 108.426 106.919 107.165Z" fill="#152C69"/>
<path d="M104.328 129.952C112.734 129.82 120.917 131.118 128.9 133.722C129.339 133.865 129.762 134.054 130.197 134.209C130.683 134.382 130.894 134.71 130.839 135.226C130.666 136.855 130.524 138.487 130.325 140.113C130.207 141.085 130.067 141.228 129.137 141.103C126.783 140.788 124.443 140.372 122.089 140.058C117.881 139.496 113.678 138.844 109.451 138.484C105.432 138.141 101.383 137.945 97.3509 138.002C91.2849 138.089 85.2529 138.704 79.4059 140.463C78.0439 140.873 76.7399 141.484 75.4289 142.047C74.5689 142.416 74.2169 142.339 73.8859 141.444C73.4419 140.242 73.0419 139.023 72.6609 137.8C72.3659 136.853 72.5069 136.372 73.3959 135.914C74.9989 135.087 76.6079 134.239 78.2949 133.615C81.6319 132.381 85.0749 131.474 88.5939 130.932C90.5439 130.632 92.5209 130.464 94.4919 130.354C97.7679 130.171 101.049 130.081 104.328 129.952Z" fill="#152C69"/>
<path d="M141.023 120.118C141.199 117.074 141.375 114.03 141.552 110.986C141.732 107.879 141.905 104.771 142.095 101.664C142.277 98.7041 142.479 95.7461 142.67 92.7871C142.815 90.5411 142.944 88.2941 143.101 86.0501C143.3 83.1981 143.521 80.3471 143.731 77.4961C143.76 77.0961 143.952 76.8791 144.367 76.8711C146.66 76.8261 148.952 76.7641 151.245 76.7381C152.006 76.7291 152.152 76.9111 152.081 77.6951C151.69 81.9871 151.3 86.2791 150.881 90.5681C150.508 94.3761 150.102 98.1811 149.701 101.987C149.298 105.813 148.884 109.639 148.474 113.464C148.172 116.286 147.868 119.108 147.565 121.93C147.558 121.993 147.557 122.056 147.55 122.119C147.408 123.31 147.355 123.384 146.141 123.34C144.818 123.292 143.495 123.204 142.176 123.095C141.29 123.022 141.122 122.804 141.079 121.89C141.077 121.848 141.077 121.806 141.077 121.764C141.077 121.217 141.077 120.67 141.077 120.122C141.058 120.12 141.041 120.119 141.023 120.118Z" fill="#152C69"/>
<path d="M142.764 138.414C139.818 138.425 137.496 136.083 137.504 133.108C137.512 130.205 139.815 127.893 142.714 127.877C145.659 127.861 148.054 130.245 148.071 133.209C148.087 136.088 145.727 138.404 142.764 138.414Z" fill="#152C69"/>
</svg>
